<svg xmlns="http://www.w3.org/2000/svg" xmlns:xlink="http://www.w3.org/1999/xlink" width="150" zoomAndPan="magnify" viewBox="0 0 112.5 34.499999" height="46" preserveAspectRatio="xMidYMid meet" version="1.0"><defs><g/><clipPath id="ff1ef51b05"><path d="M 21 17 L 27 17 L 27 22 L 21 22 Z M 21 17 " clip-rule="nonzero"/></clipPath><clipPath id="0d844ec06d"><path d="M 23.972656 22.777344 L 20.660156 19.824219 L 24.105469 15.960938 L 27.417969 18.914062 Z M 23.972656 22.777344 " clip-rule="nonzero"/></clipPath><clipPath id="99fd8dbeef"><path d="M 23.972656 22.777344 L 20.660156 19.824219 L 24.105469 15.960938 L 27.417969 18.914062 Z M 23.972656 22.777344 " clip-rule="nonzero"/></clipPath></defs><g fill="#000000" fill-opacity="1"><g transform="translate(26.586761, 22.455965)"><g><path d="M 5.464844 0.289062 C 9.015625 0.289062 12.109375 -1.980469 14.117188 -6.019531 C 14.359375 -6.480469 13.417969 -7.203125 13.03125 -6.625 C 12.230469 -5.414062 10.589844 -4.8125 8.726562 -4.8125 C 6.40625 -4.8125 5.125 -5.488281 5.125 -6.597656 C 5.125 -7.300781 5.558594 -8.027344 6.238281 -8.195312 C 6.9375 -7.710938 7.613281 -7.566406 8.265625 -7.566406 C 10.25 -7.566406 11.167969 -8.242188 11.167969 -9.5 C 11.167969 -10.128906 11.023438 -10.441406 10.613281 -10.441406 C 9.933594 -10.441406 9.015625 -10.203125 7.734375 -10.203125 C 7.105469 -10.492188 6.648438 -11.121094 6.648438 -11.917969 C 6.648438 -12.957031 7.347656 -13.996094 9.015625 -13.996094 C 10.589844 -13.996094 10.949219 -13.078125 10.949219 -12.015625 C 10.949219 -11.722656 11.167969 -11.507812 11.578125 -11.507812 C 12.523438 -11.507812 13.417969 -12.617188 13.417969 -14.238281 C 13.417969 -15.617188 12.789062 -18.035156 9.136719 -18.035156 C 5.535156 -18.035156 3.214844 -16.101562 3.214844 -13.152344 C 3.214844 -11.722656 3.769531 -10.78125 4.664062 -10.273438 C 4.957031 -10.105469 4.882812 -9.742188 4.519531 -9.71875 C 1.933594 -9.5 0.289062 -7.519531 0.289062 -4.691406 C 0.289062 -1.472656 2.636719 0.289062 5.464844 0.289062 Z M 5.464844 0.289062 "/></g></g></g><g fill="#000000" fill-opacity="1"><g transform="translate(39.059517, 22.455965)"><g><path d="M 2.828125 0 C 4.304688 0 5.703125 -1.570312 6.695312 -3.53125 L 6.792969 -3.53125 C 6.527344 -1.523438 7.324219 0 8.871094 0 C 11.554688 0 12.882812 -3.769531 14.070312 -6.019531 C 14.3125 -6.480469 13.34375 -7.203125 12.980469 -6.625 C 12.496094 -5.851562 11.894531 -5.390625 11.070312 -5.390625 C 10.007812 -5.390625 9.742188 -6.359375 10.5625 -8.121094 L 13.296875 -15.109375 C 13.925781 -16.488281 13.585938 -17.382812 12.738281 -17.382812 C 12.015625 -17.382812 11.121094 -16.96875 10.203125 -14.746094 C 9.160156 -12.257812 9.160156 -10.925781 8.773438 -10.925781 C 8.148438 -10.925781 8.242188 -12.085938 6.308594 -12.085938 C 2.152344 -12.085938 0.0742188 -7.011719 0.0742188 -3.433594 C 0.0742188 -1.5 0.917969 0 2.828125 0 Z M 5.027344 -5.003906 C 4.109375 -5.003906 3.769531 -5.609375 3.769531 -6.308594 C 3.769531 -7.371094 4.570312 -8.558594 5.753906 -8.558594 C 6.695312 -8.558594 7.082031 -7.976562 7.082031 -7.277344 C 7.082031 -6.261719 6.238281 -5.003906 5.027344 -5.003906 Z M 5.027344 -5.003906 "/></g></g></g><g fill="#000000" fill-opacity="1"><g transform="translate(51.483933, 22.455965)"><g><path d="M 2.828125 0 C 4.304688 0 5.703125 -1.570312 6.695312 -3.53125 L 6.792969 -3.53125 C 6.527344 -1.523438 7.324219 0 8.871094 0 C 11.554688 0 12.882812 -3.769531 14.070312 -6.019531 C 14.3125 -6.480469 13.34375 -7.203125 12.980469 -6.625 C 12.496094 -5.851562 11.894531 -5.390625 11.070312 -5.390625 C 10.007812 -5.390625 9.742188 -6.359375 10.5625 -8.121094 L 13.296875 -15.109375 C 13.925781 -16.488281 13.585938 -17.382812 12.738281 -17.382812 C 12.015625 -17.382812 11.121094 -16.96875 10.203125 -14.746094 C 9.160156 -12.257812 9.160156 -10.925781 8.773438 -10.925781 C 8.148438 -10.925781 8.242188 -12.085938 6.308594 -12.085938 C 2.152344 -12.085938 0.0742188 -7.011719 0.0742188 -3.433594 C 0.0742188 -1.5 0.917969 0 2.828125 0 Z M 5.027344 -5.003906 C 4.109375 -5.003906 3.769531 -5.609375 3.769531 -6.308594 C 3.769531 -7.371094 4.570312 -8.558594 5.753906 -8.558594 C 6.695312 -8.558594 7.082031 -7.976562 7.082031 -7.277344 C 7.082031 -6.261719 6.238281 -5.003906 5.027344 -5.003906 Z M 5.027344 -5.003906 "/></g></g></g><g fill="#000000" fill-opacity="1"><g transform="translate(63.908349, 22.455965)"><g><path d="M 12.570312 -6.625 C 11.871094 -5.609375 10.949219 -4.519531 10.226562 -4.519531 C 9.667969 -4.519531 9.210938 -4.980469 9.597656 -6.332031 C 10.417969 -8.773438 11.167969 -10.007812 11.167969 -11.023438 C 11.167969 -11.796875 10.78125 -12.085938 10.082031 -12.085938 C 8.847656 -12.085938 7.855469 -10.371094 6.867188 -7.203125 C 6.480469 -6.066406 5.875 -5.414062 4.8125 -5.414062 C 4.011719 -5.414062 3.796875 -5.824219 3.796875 -6.503906 C 3.796875 -7.929688 4.882812 -9.546875 4.882812 -11.121094 C 4.882812 -11.75 4.664062 -12.085938 4.132812 -12.085938 C 2.78125 -12.085938 1.667969 -10.152344 0.554688 -6.625 C 0.0742188 -5.050781 0.0234375 -3.625 0.0234375 -2.902344 C 0.0234375 -1.0625 1.113281 -0.242188 2.417969 -0.242188 C 3.988281 -0.242188 5.171875 -1.234375 5.824219 -2.851562 C 6.066406 -3.457031 6.550781 -3.335938 6.503906 -2.804688 C 6.238281 -0.460938 4.449219 1.523438 2.320312 1.546875 C 0.820312 1.570312 -0.0742188 0.726562 -0.195312 -0.484375 C -0.242188 -0.96875 -1.957031 0.0976562 -1.957031 2.5625 C -1.957031 4.882812 -0.507812 6.308594 2.054688 6.308594 C 4.738281 6.308594 6.40625 4.449219 7.953125 -0.53125 C 8.148438 -0.195312 8.4375 0 8.800781 0 C 11.144531 0 12.257812 -3.070312 13.65625 -6.019531 C 13.925781 -6.574219 12.859375 -7.035156 12.570312 -6.625 Z M 12.570312 -6.625 "/></g></g></g><g clip-path="url(#ff1ef51b05)"><g clip-path="url(#0d844ec06d)"><g clip-path="url(#99fd8dbeef)"><path fill="#000000" d="M 22.480469 21.445312 C 22.554688 21.511719 22.640625 21.574219 22.753906 21.652344 C 22.871094 21.726562 23.003906 21.78125 23.128906 21.816406 C 23.246094 21.84375 23.363281 21.855469 23.460938 21.863281 L 23.453125 21.859375 L 23.46875 21.859375 L 23.480469 21.855469 L 23.507812 21.855469 L 23.515625 21.863281 L 23.503906 21.863281 L 23.515625 21.863281 C 23.613281 21.871094 23.683594 21.867188 23.75 21.863281 C 23.832031 21.855469 23.90625 21.847656 23.976562 21.828125 C 24.0625 21.816406 24.160156 21.785156 24.273438 21.757812 C 24.394531 21.722656 24.480469 21.683594 24.5625 21.652344 C 24.65625 21.605469 24.726562 21.539062 24.808594 21.476562 C 24.828125 21.46875 24.839844 21.46875 24.863281 21.460938 L 24.882812 21.453125 C 24.949219 21.421875 25.015625 21.390625 25.082031 21.359375 C 25.210938 21.289062 25.320312 21.195312 25.417969 21.113281 C 25.503906 21.03125 25.582031 20.960938 25.644531 20.859375 C 25.707031 20.773438 25.785156 20.660156 25.851562 20.523438 C 25.914062 20.398438 25.957031 20.277344 25.984375 20.160156 C 26.019531 19.972656 26.050781 19.777344 26.082031 19.582031 C 26.085938 19.535156 26.09375 19.480469 26.097656 19.429688 C 26.136719 19.152344 26.152344 18.917969 26.125 18.699219 C 26.113281 18.597656 26.097656 18.457031 26.054688 18.3125 C 26.015625 18.199219 25.964844 18.078125 25.890625 17.957031 C 25.785156 17.773438 25.636719 17.601562 25.453125 17.425781 C 25.433594 17.40625 25.417969 17.394531 25.394531 17.375 C 25.324219 17.3125 25.222656 17.21875 25.09375 17.160156 C 25.058594 17.140625 25.023438 17.136719 24.988281 17.117188 C 24.976562 17.117188 24.960938 17.105469 24.949219 17.105469 C 24.925781 17.101562 24.90625 17.09375 24.886719 17.089844 C 24.820312 17.070312 24.757812 17.054688 24.695312 17.039062 C 24.5625 17.011719 24.417969 17 24.300781 17 C 24.183594 16.996094 24.070312 17.011719 23.96875 17.023438 C 23.832031 17.046875 23.710938 17.082031 23.582031 17.109375 C 23.457031 17.144531 23.335938 17.191406 23.203125 17.265625 C 23.105469 17.320312 23.019531 17.386719 22.933594 17.453125 C 22.828125 17.53125 22.722656 17.617188 22.625 17.714844 C 22.527344 17.808594 22.4375 17.894531 22.371094 17.980469 C 22.296875 18.070312 22.234375 18.183594 22.171875 18.308594 C 22.121094 18.410156 22.085938 18.519531 22.058594 18.625 C 22.046875 18.652344 22.042969 18.675781 22.027344 18.703125 C 21.988281 18.820312 21.953125 18.933594 21.925781 19.039062 C 21.898438 19.15625 21.867188 19.261719 21.847656 19.375 C 21.824219 19.472656 21.804688 19.59375 21.785156 19.71875 C 21.769531 19.839844 21.765625 19.976562 21.773438 20.113281 C 21.78125 20.234375 21.808594 20.367188 21.84375 20.488281 C 21.878906 20.609375 21.945312 20.722656 21.992188 20.816406 C 22.046875 20.902344 22.105469 20.996094 22.1875 21.09375 C 22.285156 21.21875 22.363281 21.316406 22.453125 21.394531 C 22.453125 21.421875 22.46875 21.433594 22.480469 21.445312 " fill-opacity="1" fill-rule="nonzero"/></g></g></g><g fill="#000000" fill-opacity="1"><g transform="translate(78.240528, 29.019864)"><g><path d="M -1.695312 -5.625 C -1.222656 -4.707031 -0.691406 -3.808594 -0.167969 -2.914062 C 0.167969 -2.335938 0.511719 -1.765625 0.859375 -1.195312 C 0.945312 -1.050781 1.074219 -0.917969 1.214844 -0.816406 C 1.417969 -0.671875 1.722656 -0.753906 1.796875 -1.003906 C 1.886719 -1.3125 1.921875 -1.632812 1.957031 -1.949219 C 1.980469 -2.125 1.941406 -2.292969 1.949219 -2.472656 C 2.003906 -3.675781 1.882812 -4.875 1.695312 -6.082031 C 1.683594 -6.148438 1.679688 -6.210938 1.683594 -6.273438 C 1.6875 -6.339844 1.632812 -6.445312 1.78125 -6.472656 L 1.925781 -6.261719 C 2.351562 -5.632812 2.671875 -4.945312 3.050781 -4.304688 C 3.351562 -3.796875 3.65625 -3.304688 3.992188 -2.828125 C 4.085938 -2.6875 4.222656 -2.570312 4.363281 -2.46875 C 4.445312 -2.410156 4.558594 -2.382812 4.664062 -2.398438 C 4.871094 -2.429688 5.078125 -2.488281 5.28125 -2.554688 C 5.578125 -2.660156 5.707031 -2.800781 5.707031 -3.113281 C 5.703125 -3.289062 5.703125 -3.460938 5.675781 -3.636719 C 5.554688 -4.421875 5.445312 -5.21875 5.316406 -6 C 5.199219 -6.703125 5.070312 -7.414062 4.9375 -8.105469 C 4.785156 -8.890625 4.648438 -9.683594 4.492188 -10.464844 C 4.476562 -10.546875 4.417969 -10.613281 4.367188 -10.714844 C 4.207031 -10.707031 4.042969 -10.707031 3.945312 -10.707031 C 3.679688 -10.496094 3.722656 -10.265625 3.742188 -10.054688 C 3.773438 -9.730469 3.851562 -9.410156 3.867188 -9.089844 C 3.921875 -7.917969 4.140625 -6.769531 4.332031 -5.628906 C 4.417969 -5.125 4.535156 -4.609375 4.585938 -4.097656 C 4.589844 -4.039062 4.542969 -3.988281 4.507812 -3.90625 C 4.453125 -3.964844 4.398438 -4 4.363281 -4.042969 C 3.964844 -4.550781 3.722656 -5.164062 3.371094 -5.71875 C 2.800781 -6.628906 2.300781 -7.59375 1.746094 -8.519531 C 1.652344 -8.683594 1.558594 -8.859375 1.433594 -9.007812 C 1.21875 -9.25 0.785156 -9.171875 0.683594 -8.859375 C 0.640625 -8.722656 0.625 -8.566406 0.625 -8.417969 C 0.640625 -7.710938 0.699219 -6.992188 0.753906 -6.28125 C 0.828125 -5.34375 0.964844 -4.402344 0.980469 -3.445312 C 0.984375 -3.371094 0.984375 -3.273438 0.867188 -3.238281 C 0.828125 -3.28125 0.785156 -3.320312 0.75 -3.363281 C 0.121094 -4.140625 -0.261719 -5.078125 -0.757812 -5.9375 C -1.007812 -6.371094 -1.273438 -6.796875 -1.503906 -7.238281 C -1.597656 -7.417969 -1.722656 -7.5625 -1.917969 -7.625 C -1.949219 -7.636719 -1.992188 -7.625 -2.082031 -7.628906 C -2.160156 -7.511719 -2.265625 -7.382812 -2.417969 -7.191406 C -2.164062 -6.648438 -1.953125 -6.121094 -1.695312 -5.625 Z M -1.695312 -5.625 "/></g></g></g><g fill="#000000" fill-opacity="1"><g transform="translate(86.391925, 24.32336)"><g><path d="M -2.054688 -2.230469 C -1.703125 -1.5625 -1.199219 -1.042969 -0.402344 -0.910156 C 0.199219 -0.8125 0.761719 -0.898438 1.207031 -1.382812 C 1.363281 -1.554688 1.53125 -1.71875 1.6875 -1.90625 C 2.226562 -2.542969 2.242188 -3.28125 2.082031 -4.046875 C 2.03125 -4.285156 1.875 -4.476562 1.6875 -4.617188 C 1.558594 -4.722656 1.382812 -4.714844 1.289062 -4.578125 C 1.230469 -4.496094 1.171875 -4.382812 1.175781 -4.289062 C 1.171875 -4.140625 1.203125 -3.992188 1.25 -3.84375 C 1.378906 -3.210938 1.25 -2.695312 0.761719 -2.195312 C 0.242188 -1.660156 -0.675781 -1.660156 -1.144531 -2.46875 C -1.40625 -2.902344 -1.601562 -3.398438 -1.523438 -3.914062 C -1.203125 -4.164062 -0.890625 -4.386719 -0.585938 -4.636719 C -0.21875 -4.921875 -0.0898438 -5.34375 -0.00390625 -5.761719 C 0.078125 -6.230469 -0.371094 -6.613281 -0.820312 -6.453125 C -0.984375 -6.40625 -1.128906 -6.3125 -1.257812 -6.203125 C -1.585938 -5.914062 -1.851562 -5.574219 -2.054688 -5.1875 C -2.105469 -5.082031 -2.199219 -5 -2.289062 -4.902344 C -2.578125 -5.03125 -2.71875 -5.238281 -2.816406 -5.492188 C -3.082031 -6.21875 -2.910156 -6.886719 -2.511719 -7.519531 C -2.34375 -7.800781 -2.105469 -7.960938 -1.765625 -7.9375 C -1.65625 -7.941406 -1.546875 -7.929688 -1.445312 -7.957031 C -1.296875 -7.988281 -1.15625 -8.042969 -1.109375 -8.222656 C -1.0625 -8.421875 -1.125 -8.570312 -1.285156 -8.671875 C -1.390625 -8.738281 -1.511719 -8.804688 -1.632812 -8.808594 C -2.035156 -8.84375 -2.398438 -8.742188 -2.71875 -8.460938 C -3.058594 -8.15625 -3.316406 -7.773438 -3.503906 -7.359375 C -3.730469 -6.84375 -3.839844 -6.28125 -3.753906 -5.71875 C -3.640625 -4.90625 -3.226562 -4.273438 -2.402344 -3.890625 C -2.414062 -3.285156 -2.320312 -2.730469 -2.054688 -2.230469 Z M -2.054688 -2.230469 "/></g></g></g><g fill="#000000" fill-opacity="1"><g transform="translate(90.52449, 19.686391)"><g><path d="M -2.238281 -5.65625 L -2.292969 -6.289062 C -2.34375 -6.789062 -2.5625 -7.195312 -2.914062 -7.53125 C -3.535156 -8.136719 -4.3125 -8.140625 -4.921875 -7.539062 C -5.039062 -7.433594 -5.136719 -7.308594 -5.199219 -7.179688 C -5.355469 -6.871094 -5.488281 -6.554688 -5.632812 -6.238281 C -5.707031 -6.066406 -5.761719 -5.882812 -5.847656 -5.703125 C -6.058594 -5.261719 -6.054688 -5.0625 -5.734375 -4.714844 C -5.363281 -4.332031 -4.984375 -3.945312 -4.582031 -3.582031 C -3.46875 -2.605469 -2.339844 -1.636719 -1.214844 -0.679688 C -1.050781 -0.535156 -0.867188 -0.40625 -0.671875 -0.320312 C -0.289062 -0.144531 0.0507812 -0.25 0.292969 -0.585938 C 0.609375 -1.023438 0.867188 -1.492188 1.039062 -2.015625 C 1.421875 -3.175781 1.238281 -4.234375 0.363281 -5.117188 C 0.0078125 -5.457031 -0.382812 -5.761719 -0.90625 -5.859375 C -1.347656 -5.945312 -1.753906 -5.851562 -2.238281 -5.65625 Z M -3.390625 -3.808594 L -5.003906 -5.207031 C -4.878906 -5.855469 -4.703125 -6.433594 -4.230469 -6.882812 C -3.964844 -7.121094 -3.761719 -7.132812 -3.484375 -6.933594 C -3.1875 -6.710938 -3.058594 -6.398438 -2.992188 -6.054688 C -2.96875 -5.933594 -2.957031 -5.800781 -2.972656 -5.671875 C -3.011719 -5.070312 -3.222656 -4.519531 -3.390625 -3.808594 Z M -1.667969 -2.308594 C -2.039062 -2.640625 -2.453125 -2.921875 -2.777344 -3.320312 C -2.71875 -3.6875 -2.601562 -4.023438 -2.4375 -4.351562 C -2.265625 -4.675781 -2.015625 -4.898438 -1.675781 -5.015625 C -1.40625 -5.105469 -1.140625 -5.109375 -0.917969 -4.9375 C -0.570312 -4.664062 -0.21875 -4.375 0.0117188 -3.964844 C 0.238281 -3.542969 0.308594 -3.109375 0.214844 -2.648438 C 0.125 -2.195312 -0.0859375 -1.792969 -0.332031 -1.40625 C -0.367188 -1.359375 -0.433594 -1.34375 -0.539062 -1.285156 C -0.933594 -1.644531 -1.296875 -1.984375 -1.667969 -2.308594 Z M -1.667969 -2.308594 "/></g></g></g></svg>